<?xml version="1.0" encoding="UTF-8"?>
<svg width="1440px" height="74px" viewBox="0 0 1440 74" version="1.1" xmlns="http://www.w3.org/2000/svg" xmlns:xlink="http://www.w3.org/1999/xlink">
    <!-- Generator: Sketch 63.1 (92452) - https://sketch.com -->
    <title>Main Menu Copy</title>
    <desc>Created with Sketch.</desc>
    <defs>
        <path d="M11.7597656,30 L11.7597656,16.5820312 L7.265625,16.5820312 L7.265625,11.25 L11.7597656,11.25 L11.7597656,7.04882812 C11.7597656,2.484375 14.5488281,0 18.6210938,0 C20.5722656,0 22.2480469,0.146484375 22.734375,0.2109375 L22.734375,4.98046875 L19.9101562,4.98046875 C17.6953125,4.98046875 17.2675781,6.03515625 17.2675781,7.57617188 L17.2675781,11.25 L22.265625,11.25 L21.5800781,16.5820312 L17.2675781,16.5820312 L17.2675781,30" id="path-1"></path>
        <path d="M15.0102539,8.27197266 C11.2836914,8.27197266 8.27783203,11.277832 8.27783203,15.0043945 C8.27783203,18.730957 11.2836914,21.7368164 15.0102539,21.7368164 C18.7368164,21.7368164 21.7426758,18.730957 21.7426758,15.0043945 C21.7426758,11.277832 18.7368164,8.27197266 15.0102539,8.27197266 Z M15.0102539,19.3813477 C12.6020508,19.3813477 10.6333008,17.418457 10.6333008,15.0043945 C10.6333008,12.590332 12.5961914,10.6274414 15.0102539,10.6274414 C17.4243164,10.6274414 19.387207,12.590332 19.387207,15.0043945 C19.387207,17.418457 17.418457,19.3813477 15.0102539,19.3813477 L15.0102539,19.3813477 Z M23.5883789,7.99658203 C23.5883789,8.86962891 22.8852539,9.56689453 22.0180664,9.56689453 C21.1450195,9.56689453 20.4477539,8.86376953 20.4477539,7.99658203 C20.4477539,7.12939453 21.1508789,6.42626953 22.0180664,6.42626953 C22.8852539,6.42626953 23.5883789,7.12939453 23.5883789,7.99658203 Z M28.0473633,9.59033203 C27.9477539,7.48681641 27.4672852,5.62353516 25.9262695,4.08837891 C24.3911133,2.55322266 22.527832,2.07275391 20.4243164,1.96728516 C18.2563477,1.84423828 11.7583008,1.84423828 9.59033203,1.96728516 C7.49267578,2.06689453 5.62939453,2.54736328 4.08837891,4.08251953 C2.54736328,5.61767578 2.07275391,7.48095703 1.96728516,9.58447266 C1.84423828,11.7524414 1.84423828,18.2504883 1.96728516,20.418457 C2.06689453,22.5219727 2.54736328,24.3852539 4.08837891,25.9204102 C5.62939453,27.4555664 7.48681641,27.9360352 9.59033203,28.0415039 C11.7583008,28.1645508 18.2563477,28.1645508 20.4243164,28.0415039 C22.527832,27.9418945 24.3911133,27.4614258 25.9262695,25.9204102 C27.4614258,24.3852539 27.9418945,22.5219727 28.0473633,20.418457 C28.1704102,18.2504883 28.1704102,11.7583008 28.0473633,9.59033203 Z M25.246582,22.7446289 C24.7895508,23.8930664 23.9047852,24.777832 22.7504883,25.2407227 C21.0219727,25.9262695 16.9204102,25.7680664 15.0102539,25.7680664 C13.1000977,25.7680664 8.99267578,25.9204102 7.27001953,25.2407227 C6.12158203,24.7836914 5.23681641,23.8989258 4.77392578,22.7446289 C4.08837891,21.0161133 4.24658203,16.9145508 4.24658203,15.0043945 C4.24658203,13.0942383 4.09423828,8.98681641 4.77392578,7.26416016 C5.23095703,6.11572266 6.11572266,5.23095703 7.27001953,4.76806641 C8.99853516,4.08251953 13.1000977,4.24072266 15.0102539,4.24072266 C16.9204102,4.24072266 21.027832,4.08837891 22.7504883,4.76806641 C23.8989258,5.22509766 24.7836914,6.10986328 25.246582,7.26416016 C25.9321289,8.99267578 25.7739258,13.0942383 25.7739258,15.0043945 C25.7739258,16.9145508 25.9321289,21.0219727 25.246582,22.7446289 Z" id="path-3"></path>
    </defs>
    <g id="Page-1" stroke="none" stroke-width="1" fill="none" fill-rule="evenodd">
        <g id="TNP---Homepage" transform="translate(0.000000, -47.000000)">
            <g id="Main-Menu" transform="translate(0.000000, 44.000000)">
                <g>
                    <g id="Brands/facebook-f" transform="translate(215.250000, 3.000000)">
                        <mask id="mask-2" fill="white">
                            <use xlink:href="#path-1"></use>
                        </mask>
                        <use id="Mask" fill="#000000" fill-rule="nonzero" xlink:href="#path-1"></use>
                        <g id="Color" stroke-width="1" fill-rule="evenodd" mask="url(#mask-2)" fill="#FFFFFF">
                            <rect id="Purple" x="0" y="0" width="30" height="30"></rect>
                        </g>
                    </g>
                    <g id="Brands/instagram" transform="translate(159.250000, 3.000000)">
                        <mask id="mask-4" fill="white">
                            <use xlink:href="#path-3"></use>
                        </mask>
                        <use id="Mask" fill="#000000" fill-rule="nonzero" xlink:href="#path-3"></use>
                        <g id="Color" stroke-width="1" fill-rule="evenodd" mask="url(#mask-4)" fill="#FFFFFF">
                            <rect id="Purple" x="0" y="0" width="30" height="30"></rect>
                        </g>
                    </g>
                    <text id="ABOUT-FILM" font-family="Helvetica" font-size="18" font-weight="normal" fill="#FFFFFF">
                        <tspan x="766.245605" y="18">ABOUT FILM</tspan>
                    </text>
                    <text id="CREATIVE-TEAM" font-family="Helvetica" font-size="18" font-weight="normal" fill="#FFFFFF">
                        <tspan x="947.740234" y="18">CREATIVE TEAM</tspan>
                    </text>
                    <text id="CONTACT-US" font-family="Helvetica" font-size="18" font-weight="normal" fill="#FFFFFF">
                        <tspan x="1161.75" y="18">CONTACT US</tspan>
                    </text>
                    <line x1="0.25" y1="75.75" x2="1440.25" y2="75.75" id="Line" stroke="#FFFFFF" stroke-width="2" stroke-linecap="square"></line>
                </g>
            </g>
        </g>
    </g>
</svg>